<svg xmlns="http://www.w3.org/2000/svg" width="25.977" height="22.979" viewBox="279.012 823.179 25.977 22.979"><path d="M14.955 3a1 1 0 0 0-.504.156l-11.989 7.63a1 1 0 1 0 1.074 1.686l11.452-7.288 11.452 7.288a1 1 0 1 0 1.074-1.686l-11.99-7.63a1 1 0 0 0-.57-.156Zm.033 3.996L3.998 13.99v9.99c0 1.105.894 1.999 1.998 1.999h3.997v-3.997a4.996 4.996 0 0 1 9.99 0v3.997h3.997a1.998 1.998 0 0 0 1.998-1.998V13.99l-10.99-6.994Z" fill="#fff" fill-rule="evenodd" style="--darkreader-inline-fill:#e8e6e3" transform="translate(277.012 820.18)" data-name="الرئيسية"/></svg>