<svg xmlns="http://www.w3.org/2000/svg" width="24" height="24" viewBox="96 759 24 24"><g data-name="Icon ionic-ios-chatbubbles"><path d="M25.425 18.727c0-.254.069-.496.19-.704.035-.063.08-.121.121-.179a9.348 9.348 0 0 0 1.592-5.21C27.346 7.316 22.858 3 17.308 3c-4.841 0-8.88 3.294-9.826 7.667a9.271 9.271 0 0 0-.213 1.973c0 5.325 4.315 9.756 9.865 9.756.883 0 2.071-.265 2.723-.444a18.272 18.272 0 0 0 1.466-.479 1.525 1.525 0 0 1 1.119.017l3.271 1.16s.138.058.225.058a.46.46 0 0 0 .462-.462c0-.058-.03-.156-.03-.156l-.945-3.363Z" fill="#fff" fill-rule="evenodd" style="--darkreader-inline-fill:#e8e6e3" transform="translate(92.672 756)" data-name="Path 78904"/><path d="M18.606 23.526c-.208.058-.473.122-.762.185-.606.127-1.379.26-1.961.26-5.55 0-9.866-4.431-9.866-9.756 0-.38.04-.865.087-1.235a7.91 7.91 0 0 1 .133-.738c.057-.26.126-.52.201-.773l-.461.41C4.085 13.528 3 15.881 3 18.333c0 1.69.49 3.317 1.43 4.73.133.203.208.359.185.462-.023.104-.686 3.577-.686 3.577a.463.463 0 0 0 .156.445.47.47 0 0 0 .294.103.414.414 0 0 0 .167-.034l3.237-1.275a.901.901 0 0 1 .329-.064s.138-.011.363.075c1.09.427 2.296.693 3.502.693 2.688 0 5.215-1.16 6.929-3.18 0 0 .184-.253.398-.553a9.12 9.12 0 0 1-.698.213Z" fill="#fff" fill-rule="evenodd" style="--darkreader-inline-fill:#e8e6e3" transform="translate(93 755.349)" data-name="Path 78905"/></g></svg>